<svg width="36" height="36" viewBox="0 0 36 36" fill="none" xmlns="http://www.w3.org/2000/svg">
<rect width="36" height="36" fill="white"/>
<rect x="3" y="3" width="30" height="30" fill="white"/>
<path d="M19.709 18.5033L18.9102 19.4258H22.2145H22.379V18.1527H22.2145H20.4763C20.1818 18.1527 19.9018 18.2807 19.709 18.5033Z" fill="#00A0E9"/>
<path d="M15.5137 21.372H17.1808V23.2695H18.435V21.372H19.8983V23.2695H21.1525V21.372H22.6817V20.1177H15.5137V21.372Z" fill="#08294D"/>
<path d="M10.2601 14.438L12.0698 15.0622C12.0215 15.2686 11.9387 15.4616 11.8277 15.6351C11.668 15.8846 11.4503 16.0931 11.1935 16.242C10.9206 16.4002 10.6039 16.4911 10.2658 16.4911C9.92766 16.4911 9.61101 16.4002 9.3381 16.242C9.08131 16.0931 8.86363 15.8846 8.70396 15.6351C8.59199 15.4601 8.50876 15.2654 8.46054 15.0569L10.2601 14.438ZM15.8181 19.4258H16.1235C17.4244 19.4258 18.6551 18.7956 19.4156 17.7402L20.5283 16.1958H18.9592L18.3827 16.9959C17.8608 17.7203 17.0162 18.1527 16.1235 18.1527H15.8181V18.1559H10.8936V17.6614C10.9236 17.6552 10.9536 17.6488 10.9833 17.6418C11.0928 17.6156 11.2 17.5836 11.3046 17.5462C12.2432 17.2108 12.9718 16.4343 13.2407 15.466L13.3565 15.506L13.3542 15.4915L15.0316 16.0837V14.7525L10.8796 13.2867V12.1649H9.6243V13.2981L5.5 14.7446V16.075L7.17883 15.4862L7.17682 15.4983L7.28901 15.4598C7.55662 16.4308 8.28601 17.2101 9.22665 17.5462C9.33205 17.5839 9.44021 17.6156 9.55054 17.6418C9.57973 17.6487 9.60884 17.6559 9.63833 17.662V18.1559H5.5V19.4258H15.8181Z" fill="#08294D"/>
<path d="M26.6522 20.4203C26.6522 20.9665 26.2078 21.4108 25.6617 21.4108C25.1155 21.4108 24.6712 20.9665 24.6712 20.4203V18.4273C24.6712 17.8812 25.1155 17.4369 25.6617 17.4369C26.2078 17.4369 26.6522 17.8812 26.6522 18.4273V20.4203ZM25.6617 16.1914C24.432 16.1914 23.4258 17.1975 23.4258 18.4273V20.4203C23.4258 21.6501 24.432 22.6562 25.6617 22.6562C26.8915 22.6562 27.8976 21.6501 27.8976 20.4203V20.3549V19.1005V18.8665V18.4273C27.8976 17.1975 26.8915 16.1914 25.6617 16.1914Z" fill="#08294D"/>
<path d="M29.2746 16.1969V18.9034H28.2305V20.1578H29.2746V23.2695H30.529V16.1969H29.2746Z" fill="#08294D"/>
<path d="M7.5633 21.392H12.9668V21.9953H7.97006C7.74582 21.9953 7.5633 21.8128 7.5633 21.5885V21.392ZM6.28906 21.5885C6.28906 22.5154 7.04316 23.2695 7.97006 23.2695H14.241V20.1177H6.28906V21.5885Z" fill="#08294D"/>
</svg>
