<svg width="36" height="36" viewBox="0 0 36 36" fill="none" xmlns="http://www.w3.org/2000/svg">
<rect width="36" height="36" fill="white"/>
<path d="M20.0504 18.6039L19.0918 19.7109H23.057H23.2544V18.1832H23.057H20.9712C20.6177 18.1832 20.2817 18.3368 20.0504 18.6039Z" fill="#00A0E9"/>
<path d="M15.0166 22.0472H17.0171V24.3242H18.5222V22.0472H20.2781V24.3242H21.7832V22.0472H23.6183V20.542H15.0166V22.0472Z" fill="#08294D"/>
<path d="M8.71218 13.7256L10.8838 14.4747C10.8258 14.7224 10.7264 14.9539 10.5932 15.1621C10.4016 15.4615 10.1404 15.7118 9.83216 15.8904C9.50467 16.0802 9.12468 16.1893 8.71898 16.1893C8.3132 16.1893 7.93321 16.0802 7.60572 15.8904C7.29757 15.7118 7.03636 15.4615 6.84475 15.1621C6.71039 14.9521 6.61051 14.7184 6.55264 14.4683L8.71218 13.7256ZM15.3817 19.7109H15.7482C17.3093 19.7109 18.7861 18.9547 19.6987 17.6882L21.034 15.8349H19.151L18.4592 16.7951C17.833 17.6644 16.8195 18.1832 15.7482 18.1832H15.3817V18.1871H9.47233V17.5937C9.50834 17.5862 9.54426 17.5785 9.57991 17.5701C9.71132 17.5388 9.83996 17.5003 9.96554 17.4555C11.0918 17.053 11.9662 16.1212 12.2888 14.9592L12.4278 15.0072L12.425 14.9898L14.4379 15.7005V14.1029L9.45558 12.3441V10.9979H7.94916V12.3577L3 14.0935V15.69L5.0146 14.9834L5.01218 14.998L5.14681 14.9518C5.46795 16.117 6.34321 17.0521 7.47198 17.4555C7.59846 17.5007 7.72826 17.5387 7.86065 17.5701C7.89568 17.5785 7.93061 17.5871 7.966 17.5944V18.1871H3V19.7109H15.3817Z" fill="#08294D"/>
<path d="M28.3825 20.9067C28.3825 21.5622 27.8492 22.0953 27.1939 22.0953C26.5384 22.0953 26.0053 21.5622 26.0053 20.9067V18.5151C26.0053 17.8598 26.5384 17.3266 27.1939 17.3266C27.8492 17.3266 28.3825 17.8598 28.3825 18.5151V20.9067ZM27.1939 15.8321C25.7182 15.8321 24.5107 17.0394 24.5107 18.5151V20.9067C24.5107 22.3824 25.7182 23.5898 27.1939 23.5898C28.6696 23.5898 29.877 22.3824 29.877 20.9067V20.8282V19.323V19.0422V18.5151C29.877 17.0394 28.6696 15.8321 27.1939 15.8321Z" fill="#08294D"/>
<path d="M31.5294 15.837V19.0848H30.2764V20.5901H31.5294V24.3242H33.0345V15.837H31.5294Z" fill="#08294D"/>
<path d="M5.47635 22.0712H11.9605V22.7951H5.96446C5.69537 22.7951 5.47635 22.5761 5.47635 22.307V22.0712ZM3.94727 22.307C3.94727 23.4193 4.85218 24.3242 5.96446 24.3242H13.4896V20.542H3.94727V22.307Z" fill="#08294D"/>
</svg>
